<?xml version="1.0" encoding="UTF-8"?>
<svg version="1.1" xmlns="http://www.w3.org/2000/svg" width="812" height="812">
<path d="M0 0 C2.64 0 5.28 0 8 0 C8.4021875 0.73089844 8.4021875 0.73089844 8.8125 1.4765625 C10.78942203 5.05323064 12.77850054 8.6188698 14.83203125 12.15234375 C18.74745528 18.89428691 22.41851649 25.6916137 25.85864258 32.68798828 C28.4730587 37.9927658 31.21933049 43.21825895 34 48.4375 C38.29123003 56.52390662 42.26735037 64.72166027 46.09277344 73.03710938 C46.93912345 74.86828647 47.80100451 76.69226305 48.6640625 78.515625 C50.46952505 82.33191076 52.24376408 86.16086334 54 90 C54.60932373 91.3298291 54.60932373 91.3298291 55.23095703 92.68652344 C82.92092598 153.45259057 82.92092598 153.45259057 72.9140625 182.765625 C70.26491379 189.24132184 67.10576218 195.32438757 63 201 C62.52046875 201.68707031 62.0409375 202.37414062 61.546875 203.08203125 C51.99922765 216.17658497 36.56051781 226.23904438 20.65917969 229.60888672 C15.00744286 230.44014658 9.32836045 230.47363681 3.625 230.5 C1.84222656 230.50954712 1.84222656 230.50954712 0.0234375 230.51928711 C-7.14815257 230.41527091 -13.2743788 229.47362756 -20 227 C-20.8451416 226.7100415 -21.6902832 226.42008301 -22.56103516 226.12133789 C-39.10789042 220.33744556 -53.07440335 207.50283333 -60.875 191.9375 C-71.03571378 170.2315872 -70.05602819 150.23736809 -62.109375 128.07910156 C-57.81349665 116.55475036 -52.89997886 105.27688877 -48 94 C-47.26549145 92.29042196 -46.53110514 90.58079138 -45.796875 88.87109375 C-42.2165299 80.60436511 -38.31485259 72.61355322 -34 64.70703125 C-31.91114591 60.86896585 -29.9449106 56.97509644 -28 53.0625 C-27.66782471 52.39557129 -27.33564941 51.72864258 -26.9934082 51.04150391 C-25.35449711 47.74457369 -23.72612483 44.44265572 -22.10546875 41.13671875 C-16.7391441 30.23650057 -10.91299258 19.61176872 -5 9 C-4.05577269 7.30090176 -3.11175367 5.60168776 -2.16796875 3.90234375 C-1.4453125 2.6015625 -0.72265625 1.30078125 0 0 Z " fill="#721629" transform="translate(418,160)"/>
<path d="M0 0 C0.72437256 -0.01047363 1.44874512 -0.02094727 2.19506836 -0.03173828 C7.28052281 0.10004852 10.27710904 1.3205246 14.3125 4.625 C15.6875 6.875 15.6875 6.875 16.3125 8.625 C16.9725 8.625 17.6325 8.625 18.3125 8.625 C20.41459857 11.77814785 20.5559761 12.48603081 20.5078125 16.07421875 C20.49814453 17.34555664 20.49814453 17.34555664 20.48828125 18.64257812 C20.46314453 19.96418945 20.46314453 19.96418945 20.4375 21.3125 C20.42847656 22.20517578 20.41945313 23.09785156 20.41015625 24.01757812 C20.38659748 26.22032314 20.35370329 28.42252588 20.3125 30.625 C19.6525 30.625 18.9925 30.625 18.3125 30.625 C17.9825 31.945 17.6525 33.265 17.3125 34.625 C16.6525 34.625 15.9925 34.625 15.3125 34.625 C15.08691406 35.19734375 14.86132812 35.7696875 14.62890625 36.359375 C12.93932643 39.26725718 10.89652811 40.80542246 8.25 42.875 C3.80676077 46.41098096 -0.4767653 50.05660434 -4.69921875 53.8515625 C-7.30842094 56.17882732 -9.99196735 58.39825563 -12.6875 60.625 C-13.29851562 61.16511719 -13.90953125 61.70523438 -14.5390625 62.26171875 C-15.16554688 62.81472656 -15.79203125 63.36773437 -16.4375 63.9375 C-17.00984375 64.44925781 -17.5821875 64.96101563 -18.171875 65.48828125 C-19.6875 66.625 -19.6875 66.625 -21.6875 66.625 C-21.6875 67.285 -21.6875 67.945 -21.6875 68.625 C-23.73851815 70.32627806 -25.79294897 71.92488008 -27.9375 73.5 C-32.65658997 76.99089346 -32.65658997 76.99089346 -36.984375 80.9453125 C-38.6875 82.625 -38.6875 82.625 -40.6875 82.625 C-41.0175 83.615 -41.3475 84.605 -41.6875 85.625 C-43.39453125 87.08984375 -43.39453125 87.08984375 -45.5 88.5625 C-48.54257583 90.70314904 -51.06177881 92.99441636 -53.6875 95.625 C-71.13101671 110.49246993 -89.81385824 116.35297038 -112.6875 114.625 C-121.18960503 113.6334196 -129.40740518 111.23390592 -137.58984375 108.80078125 C-143.93945024 106.94016849 -150.36853829 105.35762105 -156.78125 103.73120117 C-157.73128906 103.48732666 -158.68132812 103.24345215 -159.66015625 102.9921875 C-160.50843994 102.77675293 -161.35672363 102.56131836 -162.23071289 102.33935547 C-164.6875 101.625 -164.6875 101.625 -167.28051758 100.56933594 C-175.86112091 97.2028917 -186.01107821 98.95752248 -194.27685547 102.29541016 C-198.89986107 104.31346847 -203.44077195 106.45809855 -207.91748047 108.78320312 C-208.62404785 109.14865234 -209.33061523 109.51410156 -210.05859375 109.890625 C-210.99916626 110.38997559 -210.99916626 110.38997559 -211.95874023 110.89941406 C-213.6875 111.625 -213.6875 111.625 -216.6875 111.625 C-217.57373248 101.90939887 -217.8897836 92.22969036 -218.00390625 82.48046875 C-218.02454028 80.97446711 -218.0455381 79.46847042 -218.06687927 77.96247864 C-218.12143562 74.04507516 -218.1711308 70.12762539 -218.21972656 66.21014404 C-218.27043455 62.19409179 -218.32586024 58.17810475 -218.38085938 54.16210938 C-218.48762514 46.31646185 -218.58924261 38.47075919 -218.6875 30.625 C-216.6117252 29.98148403 -214.53555889 29.33923087 -212.45922852 28.69750977 C-211.30310562 28.33971939 -210.14698273 27.98192902 -208.95582581 27.61329651 C-205.19712368 26.47671698 -201.44060662 25.48931927 -197.625 24.5625 C-196.26300445 24.2292336 -194.90102542 23.89589971 -193.5390625 23.5625 C-191.63253906 23.0984375 -191.63253906 23.0984375 -189.6875 22.625 C-187.62465313 22.10554219 -185.5621211 21.58483147 -183.5 21.0625 C-182.59218781 20.84207535 -181.68437561 20.6216507 -180.74905396 20.39454651 C-178.8469907 19.91644743 -176.95253168 19.40530405 -175.07345581 18.84361267 C-164.16777261 15.83444519 -153.23841961 16.1707507 -142.0078125 16.19140625 C-139.8235559 16.18683746 -137.63930073 16.18152982 -135.45504761 16.17552185 C-130.90128699 16.16663341 -126.34770219 16.16896844 -121.79394531 16.17895508 C-115.96668758 16.19049178 -110.14003162 16.17013948 -104.31285286 16.14103794 C-99.81234918 16.12268289 -95.31199031 16.12296616 -90.81145859 16.12867546 C-88.66251653 16.12882848 -86.51356455 16.12280036 -84.36465836 16.11038399 C-81.36397692 16.09547376 -78.36441633 16.10614848 -75.36376953 16.12329102 C-74.48363693 16.11362305 -73.60350433 16.10395508 -72.69670105 16.09399414 C-66.87635072 16.16347164 -63.47684744 17.2725544 -58.6875 20.625 C-55.53526463 24.66573308 -54.34402362 29.2290495 -54.6875 34.3125 C-55.61191417 39.71749307 -58.46286771 44.13508637 -62.6875 47.625 C-65.88924745 48.69224915 -68.22951864 48.76868473 -71.59594727 48.79858398 C-72.81053116 48.81207382 -74.02511505 48.82556366 -75.27650452 48.83946228 C-76.58904709 48.84990067 -77.90158966 48.86033905 -79.25390625 48.87109375 C-80.6124705 48.88659556 -81.97102685 48.9028051 -83.32957458 48.91969299 C-89.09942472 48.99042967 -94.86934731 49.05070722 -100.6394043 49.10180664 C-104.17021912 49.13355163 -107.70081818 49.17480788 -111.23145866 49.22200203 C-113.23337932 49.24584923 -115.23542034 49.25877684 -117.23744202 49.27159119 C-118.44887375 49.28823318 -119.66030548 49.30487518 -120.90844727 49.32202148 C-121.97861588 49.33232895 -123.04878448 49.34263641 -124.15138245 49.35325623 C-126.85562633 49.37462811 -126.85562633 49.37462811 -128.6875 51.625 C-128.3689823 53.73320797 -128.3689823 53.73320797 -127.6875 55.625 C-119.57697758 55.69463245 -111.46658089 55.74787815 -103.35583305 55.78043652 C-99.58932786 55.79606606 -95.82302779 55.81725424 -92.05664062 55.85131836 C-88.41914998 55.88400935 -84.78185615 55.9018734 -81.14422989 55.90963173 C-79.75919626 55.91515785 -78.37417291 55.92594905 -76.98922348 55.94219017 C-75.04354179 55.96409128 -73.09766039 55.96522648 -71.15185547 55.96557617 C-70.04599091 55.97223801 -68.94012634 55.97889984 -67.80075073 55.98576355 C-64.22615518 55.57153935 -61.82766761 54.33152249 -58.6875 52.625 C-58.0275 52.625 -57.3675 52.625 -56.6875 52.625 C-56.6875 51.965 -56.6875 51.305 -56.6875 50.625 C-55.5428125 49.51125 -55.5428125 49.51125 -54.375 48.375 C-50.22881678 44.13239392 -48.78088463 40.53773867 -48.125 34.75 C-47.11374874 28.84357672 -43.65769914 26.44901274 -39 23.0234375 C-36.6875 21.625 -36.6875 21.625 -34.6875 21.625 C-34.6875 20.965 -34.6875 20.305 -34.6875 19.625 C-32.7075 19.13 -32.7075 19.13 -30.6875 18.625 C-30.6875 17.965 -30.6875 17.305 -30.6875 16.625 C-29.6975 16.625 -28.7075 16.625 -27.6875 16.625 C-27.3575 15.635 -27.0275 14.645 -26.6875 13.625 C-25.3675 13.625 -24.0475 13.625 -22.6875 13.625 C-22.6875 12.635 -22.6875 11.645 -22.6875 10.625 C-20.2125 9.635 -20.2125 9.635 -17.6875 8.625 C-17.6875 7.965 -17.6875 7.305 -17.6875 6.625 C-12.69789819 1.13785955 -7.07182962 0.03807381 0 0 Z " fill="#000000" transform="translate(559.6875,427.375)"/>
<path d="M0 0 C1.28821152 -0.0127597 2.57642303 -0.02551941 3.90367126 -0.03866577 C5.31151174 -0.04172307 6.71935423 -0.04395102 8.12719727 -0.04541016 C9.57064446 -0.05183705 11.01409034 -0.05856533 12.45753479 -0.06558228 C15.48295106 -0.07755702 18.50825311 -0.08126287 21.53369141 -0.08007812 C25.4088202 -0.07987482 29.28321652 -0.10718652 33.15817165 -0.14162254 C36.13934182 -0.16386855 39.12033499 -0.16791641 42.10157967 -0.16685867 C43.53012684 -0.16921774 44.95867867 -0.17805863 46.38714409 -0.19352341 C48.38560409 -0.21313458 50.38427896 -0.20483538 52.3828125 -0.1953125 C53.51959946 -0.19816254 54.65638641 -0.20101257 55.82762146 -0.20394897 C58.75610352 0.29052734 58.75610352 0.29052734 61.12031555 1.87298584 C63.3575595 5.17942299 63.27463948 7.47703239 63.30200195 11.45703125 C63.31233963 12.17353348 63.32267731 12.89003571 63.33332825 13.62825012 C63.36289434 16.00809043 63.36426178 18.38707938 63.36547852 20.76708984 C63.38050247 22.45113683 63.39723824 24.13516932 63.41558838 25.81918335 C63.45940642 30.28105246 63.47924756 34.74272668 63.49432373 39.20477295 C63.5134604 43.60848688 63.55573608 48.01196453 63.59594727 52.41552734 C63.66404193 60.17944253 63.69795674 67.94304426 63.71764374 75.70721817 C63.73443501 80.75839097 63.78663538 85.8076313 63.87075424 90.85812569 C63.92185754 94.0324774 63.95798874 97.20690482 63.99192047 100.38148117 C64.01159773 101.86346814 64.03826563 103.34538084 64.07234955 104.82710648 C64.11831916 106.85673715 64.13759786 108.88692008 64.15551758 110.91699219 C64.17487366 112.05711761 64.19422974 113.19724304 64.21417236 114.37191772 C63.75610352 117.29052734 63.75610352 117.29052734 62.128479 119.65652466 C59.04492804 121.78035817 57.13005414 121.79763191 53.39868164 121.80810547 C52.11054565 121.82071411 50.82240967 121.83332275 49.49523926 121.84631348 C48.09260511 121.83915366 46.68997595 121.83094967 45.28735352 121.82177734 C43.84533425 121.8244729 42.40331676 121.82835585 40.96130371 121.83337402 C37.94171819 121.83926623 34.92260653 121.83071583 31.90307617 121.81201172 C28.03574149 121.7892214 24.16951716 121.8023461 20.30222321 121.82630157 C17.32529357 121.8407676 14.34862646 121.83615008 11.37168884 121.82579041 C9.94595711 121.8231253 8.52020142 121.82638535 7.09449768 121.83570862 C5.10084499 121.84588532 3.10710855 121.82761923 1.11352539 121.80810547 C-0.02024536 121.8049231 -1.15401611 121.80174072 -2.32214355 121.79846191 C-5.24389648 121.29052734 -5.24389648 121.29052734 -7.60987854 119.94436646 C-10.26293491 115.63548797 -9.79093438 111.27114393 -9.74560547 106.31152344 C-9.75100845 105.1924913 -9.75641144 104.07345917 -9.76197815 102.92051697 C-9.7744958 99.21806474 -9.75795535 95.51638536 -9.73999023 91.81396484 C-9.74014513 89.2461442 -9.74163251 86.67832331 -9.74440002 84.11050415 C-9.74578532 78.72866619 -9.73363507 73.34711418 -9.71044922 67.96533203 C-9.683813 61.73948862 -9.68210127 55.51401774 -9.69383758 49.28813684 C-9.70460662 43.30052075 -9.69833652 37.31307573 -9.6842823 31.32545853 C-9.67975414 28.7760622 -9.67944284 26.2266549 -9.6833477 23.67725754 C-9.6862448 20.12152057 -9.66982531 16.56640128 -9.64794922 13.01074219 C-9.65245087 11.94888199 -9.65695251 10.88702179 -9.66159058 9.79298401 C-9.65168594 8.8283876 -9.64178131 7.8637912 -9.63157654 6.8699646 C-9.62914664 6.02895391 -9.62671675 5.18794323 -9.62421322 4.32144737 C-9.43595644 3.31614196 -9.43595644 3.31614196 -9.24389648 2.29052734 C-5.70697395 -0.06742101 -4.19318593 0.02814032 0 0 Z M23.75610352 87.29052734 C23.06827991 89.64420447 23.06827991 89.64420447 22.75610352 92.29052734 C23.74610352 93.77552734 23.74610352 93.77552734 24.75610352 95.29052734 C26.40610352 94.96052734 28.05610352 94.63052734 29.75610352 94.29052734 C30.69033996 91.28020991 30.80060262 90.42402467 29.75610352 87.29052734 C27.77610352 87.29052734 25.79610352 87.29052734 23.75610352 87.29052734 Z " fill="#000000" transform="translate(271.243896484375,443.70947265625)"/>
<path d="M0 0 C4.18890547 3.51463497 6.72296874 7.21468741 7.5625 12.625 C7.47276715 19.68024556 3.39621798 25.64836013 0.18066406 31.72412109 C-16.34561767 63.58061371 -24.45462325 98.51742343 -24.375 134.3125 C-24.37445618 135.2348645 -24.37391235 136.157229 -24.37335205 137.10754395 C-24.26832431 175.97116876 -13.88781761 211.92651049 4.17236328 246.2265625 C6.84348395 251.33343138 8.08533871 255.197199 7 261 C4.8526162 264.99857674 2.34415928 268.99267051 -1.9453125 270.8359375 C-7.11421084 272.1142672 -10.80546262 271.95970107 -15.859375 270.3125 C-35.29385015 258.39647144 -44.22325815 218.17607149 -49.39160156 197.56640625 C-51.23940904 189.77180262 -52.7784349 181.91655173 -54 174 C-54.17805176 172.87319824 -54.35610352 171.74639648 -54.53955078 170.58544922 C-56.19487286 158.97748463 -56.39872421 147.46280861 -56.375 135.75 C-56.37445618 134.73798523 -56.37391235 133.72597046 -56.37335205 132.68328857 C-56.33261956 116.15469428 -55.42924222 100.22086001 -52 84 C-51.78037598 82.95811523 -51.56075195 81.91623047 -51.33447266 80.84277344 C-45.99133588 56.34677906 -37.31218265 32.98766488 -25.25 11 C-24.89760254 10.34741211 -24.54520508 9.69482422 -24.18212891 9.02246094 C-21.39335066 4.10908605 -18.31457154 1.18419939 -13.3125 -1.375 C-8.53111059 -2.27714894 -4.52161742 -1.82476943 0 0 Z " fill="#000000" transform="translate(220,173)"/>
<path d="M0 0 C12.8162038 5.56174882 19.35548709 27.13455568 24.28125 39.11669922 C30.15979286 54.06035084 34.76716742 69.27203272 38 85 C38.21027832 86.00643555 38.42055664 87.01287109 38.63720703 88.04980469 C44.53382534 117.67762718 44.82636358 151.3416686 39 181 C38.83902832 181.89557617 38.67805664 182.79115234 38.51220703 183.71386719 C33.66953871 210.48112323 24.28544469 236.15554266 11.25 260 C10.89744141 260.65315186 10.54488281 261.30630371 10.18164062 261.97924805 C7.58743256 266.54770685 4.71496992 269.64251504 0 272 C-5.20185538 272.51848559 -9.63560371 272.62018013 -14.4375 270.4375 C-18.76059104 266.32529145 -20.81250658 263.24066214 -21.31640625 257.21875 C-21.21570953 252.84247063 -19.67247465 249.51882761 -17.5625 245.75 C-16.82224466 244.34286448 -16.08541533 242.93392266 -15.3515625 241.5234375 C-14.96516602 240.78706055 -14.57876953 240.05068359 -14.18066406 239.29199219 C2.27227023 207.35234224 10.45475731 172.54284357 10.375 136.6875 C10.37445618 135.7651355 10.37391235 134.842771 10.37335205 133.89245605 C10.26809701 94.94472336 -0.21222728 59.16665907 -18.17236328 24.75366211 C-18.53442871 24.05635986 -18.89649414 23.35905762 -19.26953125 22.640625 C-19.59155518 22.03379883 -19.9135791 21.42697266 -20.24536133 20.80175781 C-21.88623895 16.8840364 -21.762887 13.10436808 -20.3046875 9.08203125 C-15.9532025 0.50704611 -9.10254808 -1.29258904 0 0 Z " fill="#000000" transform="translate(634,172)"/>
<path d="M0 0 C4.004793 2.0023965 6.6587028 4.17998877 9 8 C10.79069186 13.37207557 10.60078539 17.52846593 8.49609375 22.68359375 C7.82321735 23.94210948 7.13631601 25.19320073 6.4375 26.4375 C5.69484553 27.84927062 4.9566876 29.26341425 4.22265625 30.6796875 C3.84898926 31.39737305 3.47532227 32.11505859 3.09033203 32.85449219 C-8.37241545 55.41038669 -13.44620719 80.27367085 -13.375 105.4375 C-13.37318726 106.62611633 -13.37318726 106.62611633 -13.37133789 107.83874512 C-13.2624292 134.23316592 -7.36665807 159.30240525 5.23828125 182.66015625 C8.57757716 188.99075049 10.68942429 193.7610449 10 201 C8.04614079 206.34740414 5.08763713 209.45618143 0 212 C-5.07373719 212.50571563 -9.56811368 212.59436791 -14.3125 210.625 C-18.1669728 206.86016611 -20.48039202 202.73637846 -23 198 C-23.928125 196.33324219 -23.928125 196.33324219 -24.875 194.6328125 C-33.98472243 177.78409549 -39.75675446 158.84484147 -43 140 C-43.17515137 139.02498535 -43.35030273 138.0499707 -43.53076172 137.04541016 C-45.18524096 126.89567446 -45.39890148 116.88923793 -45.375 106.625 C-45.37445618 105.74460052 -45.37391235 104.86420105 -45.37335205 103.9571228 C-45.33282424 89.65323823 -44.43477008 75.94021551 -41 62 C-40.77505859 61.08250977 -40.55011719 60.16501953 -40.31835938 59.21972656 C-35.64141718 40.71166192 -28.88861108 15.01871271 -14.4375 1.625 C-9.57367567 -0.67426241 -5.29109998 -0.78736607 0 0 Z " fill="#000000" transform="translate(269,202)"/>
<path d="M0 0 C5.2557325 3.54456378 7.84674505 8.66753994 10.5625 14.25 C10.90909668 14.95737305 11.25569336 15.66474609 11.61279297 16.39355469 C12.64935306 18.52784578 13.67146084 20.66837345 14.6875 22.8125 C15.22890625 23.95332031 15.7703125 25.09414062 16.328125 26.26953125 C25.66467997 46.98194134 31.69799061 70.73077419 31.92578125 93.5 C31.9355751 94.31176193 31.94536896 95.12352386 31.95545959 95.95988464 C32.12730521 113.90336888 32.00691737 131.28189168 27.6875 148.8125 C27.46255859 149.72999023 27.23761719 150.64748047 27.00585938 151.59277344 C14.67545667 200.38787946 14.67545667 200.38787946 -0.625 210.3125 C-6.80038951 211.46140968 -12.38323731 211.77510196 -17.8046875 208.20703125 C-21.55235936 204.74092023 -23.06689155 200.67444598 -23.72265625 195.703125 C-23.14744582 190.24684325 -20.82682509 186.19538962 -18.3125 181.375 C1.94182788 140.66684255 5.94364665 95.75962275 -8.0625 52.4375 C-10.92417477 43.99167404 -14.31717149 35.99749082 -18.55078125 28.15234375 C-21.59880938 22.37393122 -24.13708887 17.52700936 -23.3125 10.8125 C-21.91517156 6.38762661 -20.06106446 2.90297963 -16.125 0.3125 C-10.76047438 -2.27766795 -5.50422891 -1.97321414 0 0 Z " fill="#000000" transform="translate(584.3125,203.1875)"/>
<path d="M0 0 C4.24573896 2.09063502 6.23565032 4.91093004 8.296875 9.09375 C10.15519439 15.86911323 8.32743154 20.434193 5.23828125 26.32421875 C-7.41463655 51.77835259 -10.48151332 80.87866885 -1.83154297 108.20068359 C-0.00379613 113.47652022 2.33893917 118.43982622 4.92578125 123.38671875 C10.48338494 134.50192612 10.48338494 134.50192612 8.265625 141.45703125 C6.41163223 145.8070922 4.28872309 148.68822634 -0.015625 150.76171875 C-5.4097883 152.39941539 -10.27178347 152.20291586 -15.38671875 149.88671875 C-18.83333443 146.68056463 -20.89328293 143.53937271 -23.07421875 139.38671875 C-23.62078125 138.34644531 -24.16734375 137.30617188 -24.73046875 136.234375 C-28.31266388 129.12450072 -31.0666141 121.87530818 -33.38671875 114.26171875 C-33.62898193 113.47571289 -33.87124512 112.68970703 -34.12084961 111.87988281 C-37.60221868 99.92058743 -38.45694378 88.04711395 -38.38671875 75.63671875 C-38.38423126 74.93195404 -38.38174377 74.22718933 -38.37918091 73.50106812 C-38.32124819 62.87711037 -37.98454369 52.67342098 -35.07421875 42.38671875 C-34.84847168 41.5776709 -34.62272461 40.76862305 -34.39013672 39.93505859 C-31.5792197 30.17206055 -28.14254103 20.84484321 -23.44921875 11.82421875 C-22.90950439 10.78007812 -22.90950439 10.78007812 -22.35888672 9.71484375 C-17.43558078 0.74139665 -10.10098364 -2.98654319 0 0 Z " fill="#000000" transform="translate(322.07421875,232.61328125)"/>
<path d="M0 0 C4.11813103 2.70513799 6.10272513 6.1793954 8.3125 10.5 C8.85777344 11.54027344 9.40304687 12.58054688 9.96484375 13.65234375 C13.55294737 20.76017785 16.30471365 28.01081429 18.625 35.625 C18.86726318 36.41100586 19.10952637 37.19701172 19.35913086 38.00683594 C22.84049993 49.96613132 23.69522503 61.8396048 23.625 74.25 C23.62126877 75.30714706 23.62126877 75.30714706 23.61746216 76.38565063 C23.55952944 87.00960838 23.22282494 97.21329777 20.3125 107.5 C19.97387939 108.71357178 19.97387939 108.71357178 19.62841797 109.95166016 C16.81750095 119.7146582 13.38082228 129.04187554 8.6875 138.0625 C8.32769043 138.75859375 7.96788086 139.4546875 7.59716797 140.171875 C4.83746296 145.20184211 1.93306506 148.62647831 -3.6875 150.5 C-8.35444522 151.04225459 -11.76521048 150.9698456 -16 148.8125 C-20.07426651 145.3067358 -22.72881875 142.70389552 -23.6875 137.3125 C-24.13292883 130.71798055 -21.2023146 125.45099129 -18.2578125 119.71484375 C-6.29871991 95.70371226 -4.85814556 67.18349421 -12.93017578 41.68164062 C-14.75968547 36.41133161 -17.14112377 31.46056353 -19.6875 26.5 C-22.44658987 20.80834455 -24.54095429 16.00482876 -23.4296875 9.609375 C-21.76438057 4.87639742 -18.54592748 1.62483769 -14.3125 -0.9375 C-8.83931816 -2.11032468 -5.1361083 -2.08926439 0 0 Z " fill="#000000" transform="translate(532.6875,233.5)"/>
<path d="M0 0 C3.3 0 6.6 0 10 0 C10 17.49 10 34.98 10 53 C14.95 53 19.9 53 25 53 C26.70315657 47.05761972 26.70315657 47.05761972 27.94555664 41.09033203 C28.1023439 40.1931546 28.25913116 39.29597717 28.42066956 38.37161255 C28.66296547 36.95403152 28.66296547 36.95403152 28.91015625 35.5078125 C29.16870644 34.02799393 29.16870644 34.02799393 29.43247986 32.51828003 C30.16613922 28.31882738 30.89105107 24.11787746 31.61645508 19.91699219 C32.14864615 16.84253077 32.68550024 13.76890967 33.22265625 10.6953125 C33.38621109 9.7381131 33.54976593 8.7809137 33.71827698 7.79470825 C33.87191208 6.91644379 34.02554718 6.03817932 34.18383789 5.13330078 C34.31770401 4.35721466 34.45157013 3.58112854 34.5894928 2.78152466 C35 1 35 1 36 0 C38.18639453 -0.07258946 40.37500389 -0.08373783 42.5625 -0.0625 C44.35880859 -0.04896484 44.35880859 -0.04896484 46.19140625 -0.03515625 C47.11824219 -0.02355469 48.04507813 -0.01195312 49 0 C51.19272656 5.81456233 52.23028024 11.80656896 53.3828125 17.890625 C53.71150833 19.60206696 53.71150833 19.60206696 54.04684448 21.3480835 C54.50760534 23.75154342 54.9663959 26.1553818 55.42333984 28.55957031 C56.12529364 32.25154441 56.83362323 35.9422522 57.54296875 39.6328125 C57.98995694 41.96867854 58.43658415 44.30461369 58.8828125 46.640625 C59.09527618 47.74891663 59.30773987 48.85720825 59.52664185 49.99908447 C59.72039398 51.02064636 59.91414612 52.04220825 60.11376953 53.09472656 C60.28538605 53.99596252 60.45700256 54.89719849 60.63381958 55.82574463 C61 58 61 58 61 60 C57.7 60 54.4 60 51 60 C50.505 57.9271875 50.505 57.9271875 50 55.8125 C49.814375 55.03519531 49.62875 54.25789062 49.4375 53.45703125 C49 51 49 51 49 46 C45.04 46 41.08 46 37 46 C36.34 50.62 35.68 55.24 35 60 C23.45 60 11.9 60 0 60 C0 40.2 0 20.4 0 0 Z M42 10 C41.32966495 14.27026602 40.66435894 18.54130049 40 22.8125 C39.80921875 24.02744141 39.6184375 25.24238281 39.421875 26.49414062 C39.24140625 27.65751953 39.0609375 28.82089844 38.875 30.01953125 C38.70742188 31.09307861 38.53984375 32.16662598 38.3671875 33.27270508 C37.93328478 36.03687877 37.93328478 36.03687877 38 39 C40.97 39 43.94 39 47 39 C46.30092981 29.21301737 44.68870974 19.65432171 43 10 C42.67 10 42.34 10 42 10 Z " fill="#711629" transform="translate(545,619)"/>
<path d="M0 0 C8.25 0 16.5 0 25 0 C30.82613682 5.82613682 30.18183312 10.02070354 30.1875 17.875 C30.19974609 18.76058594 30.21199219 19.64617188 30.22460938 20.55859375 C30.23531123 25.34589027 30.22255007 29.63903424 28 34 C25.92260742 34.65185547 25.92260742 34.65185547 24 35 C24.93648955 37.66702526 25.87416621 40.3336236 26.8125 43 C27.20405273 44.11568359 27.20405273 44.11568359 27.60351562 45.25390625 C29.34288856 50.19286643 31.14677693 55.10259368 33 60 C29.37 60 25.74 60 22 60 C20.66058446 56.56475792 19.32825585 53.12705443 18 49.6875 C17.6184375 48.71103516 17.236875 47.73457031 16.84375 46.72851562 C16.4828125 45.79072266 16.121875 44.85292969 15.75 43.88671875 C15.41484375 43.02264404 15.0796875 42.15856934 14.734375 41.26831055 C14 39 14 39 14 36 C12.68 36 11.36 36 10 36 C10 43.92 10 51.84 10 60 C6.7 60 3.4 60 0 60 C0 40.2 0 20.4 0 0 Z M10 7 C10 13.93 10 20.86 10 28 C13.3 28 16.6 28 20 28 C20.02683436 24.68744674 20.0467578 21.37510817 20.0625 18.0625 C20.07087891 17.11697266 20.07925781 16.17144531 20.08789062 15.19726562 C20.09111328 14.29814453 20.09433594 13.39902344 20.09765625 12.47265625 C20.10289307 11.64000244 20.10812988 10.80734863 20.11352539 9.94946289 C20.21643292 7.99483202 20.21643292 7.99483202 19 7 C16.03 7 13.06 7 10 7 Z " fill="#721629" transform="translate(507,619)"/>
<path d="M0 0 C8.25 0 16.5 0 25 0 C30.0087029 5.0087029 29.54060892 6.9421032 29.59570312 13.65625 C29.58474609 14.8834375 29.57378906 16.110625 29.5625 17.375 C29.58634766 18.59445312 29.61019531 19.81390625 29.63476562 21.0703125 C29.61841109 31.057479 29.61841109 31.057479 26.46484375 34.8515625 C25.65144531 35.56054688 24.83804687 36.26953125 24 37 C24.24234375 37.62567871 24.4846875 38.25135742 24.734375 38.89599609 C25.82637063 41.7210098 26.91324432 44.54796664 28 47.375 C28.3815625 48.35984375 28.763125 49.3446875 29.15625 50.359375 C29.5171875 51.30039062 29.878125 52.24140625 30.25 53.2109375 C30.58515625 54.08024902 30.9203125 54.94956055 31.265625 55.84521484 C32 58 32 58 32 60 C28.7 60 25.4 60 22 60 C19.06249327 53.10167477 16.31416686 46.24701676 14.08984375 39.08203125 C13.73019531 38.39496094 13.37054688 37.70789063 13 37 C11.68 36.67 10.36 36.34 9 36 C9 43.92 9 51.84 9 60 C6.03 60 3.06 60 0 60 C0 40.2 0 20.4 0 0 Z M9 7 C9 13.93 9 20.86 9 28 C12.3 28 15.6 28 19 28 C20.20495909 27.01592689 20.20495909 27.01592689 20.11352539 25.14233398 C20.10828857 24.35157471 20.10305176 23.56081543 20.09765625 22.74609375 C20.09443359 21.89208984 20.09121094 21.03808594 20.08789062 20.15820312 C20.07951172 19.26037109 20.07113281 18.36253906 20.0625 17.4375 C20.05798828 16.53580078 20.05347656 15.63410156 20.04882812 14.70507812 C20.03700225 12.46998686 20.0205222 10.23502563 20 8 C17.03103721 6.32917961 17.03103721 6.32917961 9 7 Z " fill="#721629" transform="translate(248,619)"/>
<path d="M0 0 C4.62 0 9.24 0 14 0 C16.52083004 10.49683172 18.62724361 21.04692413 20.64428711 31.65039062 C21.1919143 34.52315672 21.7471755 37.39438355 22.30273438 40.265625 C22.65410869 42.10407826 23.00503652 43.94261693 23.35546875 45.78125 C23.52104782 46.6333606 23.68662689 47.48547119 23.85722351 48.36340332 C24.59802023 52.29442247 25.214878 55.97805544 25 60 C22.03 60 19.06 60 16 60 C14.70074209 55.66914029 13.656379 51.48525648 13 47 C9.37 47 5.74 47 2 47 C1.34 51.29 0.68 55.58 0 60 C-3.3 60 -6.6 60 -10 60 C-9.35529519 52.60223508 -8.27667042 45.38676273 -6.93359375 38.0859375 C-6.73524429 36.99028473 -6.53689484 35.89463196 -6.33253479 34.76577759 C-5.70452457 31.30150685 -5.07110392 27.83825156 -4.4375 24.375 C-4.00810414 22.01178402 -3.57906417 19.64850336 -3.15039062 17.28515625 C-2.10437309 11.52268145 -1.05350552 5.76111033 0 0 Z M7 12 C5.20796488 20.98271694 3.56291453 29.83808082 3 39 C5.97 39 8.94 39 12 39 C11.27643663 29.88310149 9.65707093 20.98361723 8 12 C7.67 12 7.34 12 7 12 Z " fill="#721629" transform="translate(647,619)"/>
<path d="M0 0 C4.62 0 9.24 0 14 0 C15.43616216 7.52735091 16.87078102 15.05499278 18.30266571 22.58315849 C18.96757088 26.07857406 19.63315827 29.57385687 20.30029297 33.06884766 C21.0667974 37.0845784 21.83035546 41.10086439 22.59375 45.1171875 C22.83436157 46.37554413 23.07497314 47.63390076 23.32287598 48.9303894 C23.54310425 50.09144196 23.76333252 51.25249451 23.99023438 52.44873047 C24.18564819 53.47465302 24.38106201 54.50057556 24.58239746 55.55758667 C25 58 25 58 25 60 C21.7 60 18.4 60 15 60 C13 50.5 13 50.5 13 46 C9.04 46 5.08 46 1 46 C0.855625 47.5675 0.71125 49.135 0.5625 50.75 C0.26338369 53.99754847 -0.20262142 56.8104857 -1 60 C-4.3 60 -7.6 60 -11 60 C-8.49112307 44.73699308 -5.94533932 29.48131355 -3.25 14.25 C-3.03964111 13.04956055 -2.82928223 11.84912109 -2.61254883 10.61230469 C-2.41556396 9.50790039 -2.2185791 8.40349609 -2.015625 7.265625 C-1.84321289 6.29399414 -1.67080078 5.32236328 -1.49316406 4.32128906 C-1 2 -1 2 0 0 Z M6 12 C4.68 20.91 3.36 29.82 2 39 C4.97 39 7.94 39 11 39 C10.50137275 29.76679887 8.95827206 21.01544116 7 12 C6.67 12 6.34 12 6 12 Z " fill="#711628" transform="translate(477,619)"/>
<path d="M0 0 C4.62 0 9.24 0 14 0 C16.78341883 13.00570923 19.43721408 26.03265223 21.90643311 39.1015625 C22.17657289 40.53083056 22.44793021 41.95986906 22.72052002 43.38867188 C23.1053584 45.40944119 23.48511687 47.43109739 23.86328125 49.453125 C24.08282471 50.62004883 24.30236816 51.78697266 24.52856445 52.98925781 C25 56 25 56 25 60 C21.7 60 18.4 60 15 60 C14.34 55.38 13.68 50.76 13 46 C9.04 46 5.08 46 1 46 C0.855625 47.93875 0.71125 49.8775 0.5625 51.875 C0.125 57.75 0.125 57.75 -1 60 C-3.97 60 -6.94 60 -10 60 C-9.43471425 52.29410737 -8.3669185 44.79629963 -6.93359375 37.20703125 C-6.73524429 36.13498947 -6.53689484 35.06294769 -6.33253479 33.9584198 C-5.70553658 30.57555685 -5.07164244 27.19403018 -4.4375 23.8125 C-4.00800461 21.50203839 -3.57896388 19.19149221 -3.15039062 16.88085938 C-2.10550998 11.2529157 -1.05444805 5.62615864 0 0 Z M6 14 C5.49420286 17.04080421 4.99519241 20.08246646 4.5 23.125 C4.35691406 23.9809375 4.21382813 24.836875 4.06640625 25.71875 C3.34304266 30.19671505 2.82081184 34.44563435 3 39 C5.97 39 8.94 39 12 39 C10.68 30.75 9.36 22.5 8 14 C7.34 14 6.68 14 6 14 Z " fill="#711629" transform="translate(322,619)"/>
<path d="M0 0 C1.79244141 0.01740234 1.79244141 0.01740234 3.62109375 0.03515625 C5.41740234 0.04869141 5.41740234 0.04869141 7.25 0.0625 C8.17683594 0.07410156 9.10367188 0.08570313 10.05859375 0.09765625 C12.33816322 6.0574945 13.30839216 12.2431371 14.44140625 18.49609375 C14.77010208 20.28123886 14.77010208 20.28123886 15.10543823 22.10244751 C15.80220495 25.89178722 16.49297654 29.68219146 17.18359375 33.47265625 C17.65585466 36.04694756 18.12850642 38.6211672 18.6015625 41.1953125 C19.75843789 47.49527207 20.90993893 53.79619288 22.05859375 60.09765625 C18.75859375 60.09765625 15.45859375 60.09765625 12.05859375 60.09765625 C10.64079742 54.95814454 10.05859375 51.58811649 10.05859375 46.09765625 C6.09859375 46.09765625 2.13859375 46.09765625 -1.94140625 46.09765625 C-2.60140625 50.71765625 -3.26140625 55.33765625 -3.94140625 60.09765625 C-7.24140625 60.09765625 -10.54140625 60.09765625 -13.94140625 60.09765625 C-12.43471344 48.62956444 -10.45552796 37.25562837 -8.42749023 25.87036133 C-7.87213254 22.74706129 -7.32363103 19.62260316 -6.77539062 16.49804688 C-6.42358893 14.51424984 -6.07139049 12.5305231 -5.71875 10.546875 C-5.55519516 9.61163498 -5.39164032 8.67639496 -5.22312927 7.71281433 C-5.06949417 6.85714371 -4.91585907 6.00147308 -4.75756836 5.11987305 C-4.62370224 4.36490036 -4.48983612 3.60992767 -4.35191345 2.83207703 C-3.64584915 -0.15109255 -3.19836597 0.10618745 0 0 Z M3.05859375 11.09765625 C2.38660355 15.01342893 1.72192633 18.93040845 1.05859375 22.84765625 C0.8678125 23.95882812 0.67703125 25.07 0.48046875 26.21484375 C0.3 27.28476562 0.11953125 28.3546875 -0.06640625 29.45703125 C-0.23398438 30.44155273 -0.4015625 31.42607422 -0.57421875 32.44042969 C-1.0326621 35.31096826 -1.0326621 35.31096826 -0.94140625 39.09765625 C2.02859375 39.09765625 4.99859375 39.09765625 8.05859375 39.09765625 C7.39124602 29.62131842 5.79687815 20.4231694 4.05859375 11.09765625 C3.72859375 11.09765625 3.39859375 11.09765625 3.05859375 11.09765625 Z " fill="#711628" transform="translate(158.94140625,618.90234375)"/>
<path d="M0 0 C0.91974609 -0.020625 1.83949219 -0.04125 2.78710938 -0.0625 C3.67076172 -0.06765625 4.55441406 -0.0728125 5.46484375 -0.078125 C6.27429443 -0.0874707 7.08374512 -0.09681641 7.91772461 -0.10644531 C10.5759748 0.33533559 11.40832338 1.16858152 13.0625 3.25 C14.50457941 6.13415883 14.15644887 8.66721528 14.125 11.875 C14.11597656 13.06351563 14.10695313 14.25203125 14.09765625 15.4765625 C14.08605469 16.39179687 14.07445312 17.30703125 14.0625 18.25 C11.0925 18.25 8.1225 18.25 5.0625 18.25 C4.4025 14.95 3.7425 11.65 3.0625 8.25 C1.0825 8.25 -0.8975 8.25 -2.9375 8.25 C-4.47016582 11.31533164 -4.04026471 14.51754272 -4 17.875 C-3.99548828 18.58140625 -3.99097656 19.2878125 -3.98632812 20.015625 C-3.97453875 21.76045275 -3.95660324 23.505237 -3.9375 25.25 C-3.29683594 25.21519531 -2.65617187 25.18039062 -1.99609375 25.14453125 C3.87297751 24.96084944 7.89716971 25.39258324 13.0625 28.25 C15.23115006 32.58730012 14.33678576 38.36095765 14.375 43.125 C14.40400391 44.32253906 14.43300781 45.52007813 14.46289062 46.75390625 C14.47126953 47.90503906 14.47964844 49.05617188 14.48828125 50.2421875 C14.50286377 51.29776855 14.51744629 52.35334961 14.5324707 53.44091797 C13.93973652 56.98377486 12.93132538 58.1380138 10.0625 60.25 C7.92773438 60.75170898 7.92773438 60.75170898 5.65625 60.74609375 C4.41681641 60.74706055 4.41681641 60.74706055 3.15234375 60.74804688 C2.29769531 60.72806641 1.44304687 60.70808594 0.5625 60.6875 C-0.29214844 60.69458984 -1.14679688 60.70167969 -2.02734375 60.70898438 C-5.65575241 60.67219084 -8.22889296 60.62508058 -11.46875 58.91015625 C-14.38131244 55.61803115 -14.04495092 52.24293558 -14 48.0625 C-13.99097656 46.97582031 -13.98195313 45.88914062 -13.97265625 44.76953125 C-13.96105469 43.93808594 -13.94945312 43.10664062 -13.9375 42.25 C-10.6375 42.25 -7.3375 42.25 -3.9375 42.25 C-3.6075 45.55 -3.2775 48.85 -2.9375 52.25 C-0.93795254 52.29254356 1.06291636 52.29080783 3.0625 52.25 C4.25591752 51.27667739 4.25591752 51.27667739 4.17602539 49.48413086 C4.16817017 48.36083374 4.16817017 48.36083374 4.16015625 47.21484375 C4.15532227 46.00151367 4.15532227 46.00151367 4.15039062 44.76367188 C4.14201172 43.91353516 4.13363281 43.06339844 4.125 42.1875 C4.12048828 41.33349609 4.11597656 40.47949219 4.11132812 39.59960938 C4.09950373 37.48304337 4.08156769 35.36651315 4.0625 33.25 C3.18207031 33.30800781 2.30164063 33.36601563 1.39453125 33.42578125 C0.23308594 33.47089844 -0.92835938 33.51601563 -2.125 33.5625 C-3.27355469 33.62050781 -4.42210937 33.67851563 -5.60546875 33.73828125 C-8.9375 33.25 -8.9375 33.25 -11.8359375 31.453125 C-14.98956852 26.6464755 -14.55308287 22.30583986 -14.375 16.6875 C-14.36919922 15.64658203 -14.36339844 14.60566406 -14.35742188 13.53320312 C-14.21765562 4.83974201 -14.21765562 4.83974201 -11.9375 1.25 C-8.29370011 -0.57189994 -4.01167515 0.02239595 0 0 Z " fill="#721629" transform="translate(411.9375,618.75)"/>
<path d="M0 0 C0.87140625 -0.00515625 1.7428125 -0.0103125 2.640625 -0.015625 C3.99414062 0.00757813 3.99414062 0.00757813 5.375 0.03125 C6.27734375 0.01578125 7.1796875 0.0003125 8.109375 -0.015625 C11.99318445 0.00735612 14.60514969 0.07487167 17.984375 2.078125 C19.90435035 5.46504781 19.81052423 8.50654556 19.625 12.28125 C19.60695313 12.97863281 19.58890625 13.67601562 19.5703125 14.39453125 C19.52338554 16.10736539 19.45164605 17.81948824 19.375 19.53125 C16.405 19.53125 13.435 19.53125 10.375 19.53125 C10.045 15.90125 9.715 12.27125 9.375 8.53125 C6.735 8.53125 4.095 8.53125 1.375 8.53125 C1.375 23.05125 1.375 37.57125 1.375 52.53125 C4.015 52.53125 6.655 52.53125 9.375 52.53125 C9.705 48.90125 10.035 45.27125 10.375 41.53125 C13.345 41.53125 16.315 41.53125 19.375 41.53125 C19.48326289 43.9491212 19.56239789 46.36212556 19.625 48.78125 C19.67527344 49.80412109 19.67527344 49.80412109 19.7265625 50.84765625 C19.78824728 54.02442264 19.56052951 56.20396761 17.984375 58.984375 C13.9112189 61.39900047 10.02103627 61.11089634 5.375 61.03125 C4.47265625 61.04671875 3.5703125 61.0621875 2.640625 61.078125 C1.76921875 61.07296875 0.8978125 61.0678125 0 61.0625 C-0.79148437 61.05798828 -1.58296875 61.05347656 -2.3984375 61.04882812 C-5.49083812 60.32998061 -6.61859664 58.95862418 -8.625 56.53125 C-9.13293457 54.10302734 -9.13293457 54.10302734 -9.14257812 51.3671875 C-9.15518677 50.33932129 -9.16779541 49.31145508 -9.18078613 48.25244141 C-9.17268921 47.14819824 -9.16459229 46.04395508 -9.15625 44.90625 C-9.1600769 43.76720215 -9.16390381 42.6281543 -9.16784668 41.45458984 C-9.17056774 39.04719153 -9.1631931 36.63976374 -9.14648438 34.23242188 C-9.12507925 30.54490318 -9.14628132 26.85933301 -9.171875 23.171875 C-9.16923176 20.83332903 -9.16410687 18.49478427 -9.15625 16.15625 C-9.16434692 15.05200684 -9.17244385 13.94776367 -9.18078613 12.81005859 C-9.16817749 11.78219238 -9.15556885 10.75432617 -9.14257812 9.6953125 C-9.13939575 8.79248535 -9.13621338 7.8896582 -9.13293457 6.95947266 C-8.09559853 2.00040306 -4.82973127 0.02753104 0 0 Z " fill="#721629" transform="translate(442.625,618.46875)"/>
<path d="M0 0 C8.91 0 17.82 0 27 0 C27 2.31 27 4.62 27 7 C21.39 7 15.78 7 10 7 C10 12.94 10 18.88 10 25 C14.62 25 19.24 25 24 25 C24 27.64 24 30.28 24 33 C19.38 33 14.76 33 10 33 C10 39.6 10 46.2 10 53 C15.61 53 21.22 53 27 53 C27 55.31 27 57.62 27 60 C18.09 60 9.18 60 0 60 C0 40.2 0 20.4 0 0 Z " fill="#721629" transform="translate(366,619)"/>
<path d="M0 0 C8.58 0 17.16 0 26 0 C26 2.31 26 4.62 26 7 C20.39 7 14.78 7 9 7 C9 12.94 9 18.88 9 25 C13.62 25 18.24 25 23 25 C23 27.64 23 30.28 23 33 C18.38 33 13.76 33 9 33 C9 39.6 9 46.2 9 53 C14.94 53 20.88 53 27 53 C27 55.31 27 57.62 27 60 C18.09 60 9.18 60 0 60 C0 40.2 0 20.4 0 0 Z " fill="#721629" transform="translate(215,619)"/>
<path d="M0 0 C9.9 0 19.8 0 30 0 C30 2.31 30 4.62 30 7 C26.7 7 23.4 7 20 7 C20 24.49 20 41.98 20 60 C16.7 60 13.4 60 10 60 C10 42.51 10 25.02 10 7 C6.7 7 3.4 7 0 7 C0 4.69 0 2.38 0 0 Z " fill="#731526" transform="translate(606,619)"/>
<path d="M0 0 C9.9 0 19.8 0 30 0 C30 2.31 30 4.62 30 7 C26.7 7 23.4 7 20 7 C20 24.49 20 41.98 20 60 C16.7 60 13.4 60 10 60 C10 42.51 10 25.02 10 7 C6.7 7 3.4 7 0 7 C0 4.69 0 2.38 0 0 Z " fill="#721629" transform="translate(281,619)"/>
<path d="M0 0 C2.97 0 5.94 0 9 0 C9 17.49 9 34.98 9 53 C13.95 53 18.9 53 24 53 C24 55.31 24 57.62 24 60 C16.08 60 8.16 60 0 60 C0 40.2 0 20.4 0 0 Z " fill="#721629" transform="translate(186,619)"/>
</svg>
